<svg xmlns="http://www.w3.org/2000/svg" width="1600" height="900" viewBox="0 0 1600 900" role="img" aria-labelledby="title desc">
  <title id="title">Evaluation after deployment</title>
  <desc id="desc">A process diagram showing that pre-deployment benchmarks should be connected to post-deployment monitoring, incidents, red teaming, and updates.</desc>
  <style>
    .bg { fill: #0f1411; }
    .title { fill: #f3f7f1; font: 700 52px Inter, Arial, sans-serif; }
    .subtitle { fill: #d4ddd5; font: 30px Inter, Arial, sans-serif; }
    .node { fill: #18251f; stroke: #8aa08f; stroke-width: 2.5; }
    .node2 { fill: #1d2b23; stroke: #b7cfbd; stroke-width: 2.5; }
    .label { fill: #eef3ec; font: 700 30px Inter, Arial, sans-serif; }
    .text { fill: #cbd5cc; font: 24px Inter, Arial, sans-serif; }
    .small { fill: #a9b7ac; font: 22px Inter, Arial, sans-serif; }
    .source { fill: #819086; font: 18px Inter, Arial, sans-serif; }
    .line { stroke: #9fb7a6; stroke-width: 5; fill: none; stroke-linecap: round; stroke-linejoin: round; }
    .dash { stroke: #d6c7a1; stroke-width: 4; fill: none; stroke-linecap: round; stroke-dasharray: 10 13; }
    .accent { fill: #b9d8bb; }
    .warn { fill: #d6c7a1; }
  </style>
  <defs>
    <marker id="arrow" viewBox="0 0 10 10" refX="8" refY="5" markerWidth="8" markerHeight="8" orient="auto-start-reverse">
      <path d="M0 0 L10 5 L0 10 Z" fill="#9fb7a6"/>
    </marker>
    <marker id="warnArrow" viewBox="0 0 10 10" refX="8" refY="5" markerWidth="8" markerHeight="8" orient="auto-start-reverse">
      <path d="M0 0 L10 5 L0 10 Z" fill="#d6c7a1"/>
    </marker>
  </defs>
  <rect class="bg" width="1600" height="900"/>
  <text class="title" x="88" y="108">Evaluation continues after launch</text>
  <text class="subtitle" x="90" y="154">Benchmarks help. Real use reveals what tests miss.</text>

  <rect class="node" x="100" y="302" width="250" height="160" rx="8"/>
  <text class="label" x="132" y="362">Benchmark</text>
  <text class="text" x="132" y="407">Controlled</text>
  <text class="text" x="132" y="438">test setup</text>

  <path class="line" d="M370 382 H505" marker-end="url(#arrow)"/>

  <rect class="node2" x="530" y="302" width="250" height="160" rx="8"/>
  <text class="label" x="562" y="362">Deploy</text>
  <text class="text" x="562" y="407">Real users</text>
  <text class="text" x="562" y="438">new contexts</text>

  <path class="line" d="M800 382 H935" marker-end="url(#arrow)"/>

  <rect class="node2" x="960" y="225" width="270" height="140" rx="8"/>
  <circle class="accent" cx="1004" cy="282" r="16"/>
  <text class="label" x="1032" y="292">Monitor</text>
  <text class="text" x="992" y="335">Observe behavior</text>

  <rect class="node2" x="960" y="405" width="270" height="140" rx="8"/>
  <circle class="warn" cx="1004" cy="462" r="16"/>
  <text class="label" x="1032" y="472">Review</text>
  <text class="text" x="992" y="515">Failures + drift</text>

  <path class="line" d="M1235 295 H1395 V475 H1255" marker-end="url(#arrow)"/>
  <text class="small" x="1288" y="388">evidence loop</text>

  <path class="dash" d="M960 475 C740 675 430 650 260 488" marker-end="url(#warnArrow)"/>
  <rect x="360" y="606" width="850" height="76" rx="8" fill="#111a15" stroke="#596a5f" stroke-width="2"/>
  <text class="label" x="410" y="654">Use deployment evidence to update tests.</text>

  <text class="source" x="100" y="812">Sources: NIST AI RMF; OpenAI Preparedness Framework; International AI Safety Report. Monitoring helps, but does not guarantee safety.</text>
</svg>
