<svg xmlns="http://www.w3.org/2000/svg" width="1600" height="900" viewBox="0 0 1600 900" role="img" aria-labelledby="title desc">
  <title id="title">Perception failure modes</title>
  <desc id="desc">A conceptual visual showing how low light, motion blur, occlusion, compression, and temporal inconsistency can stress perception systems.</desc>
  <style>
    .bg { fill: #0f1411; }
    .title { fill: #eef3ec; font: 700 58px Inter, Arial, sans-serif; }
    .subtitle { fill: #b8c4ba; font: 30px Inter, Arial, sans-serif; }
    .panel { fill: #17211c; stroke: #6f8376; stroke-width: 2; }
    .panel2 { fill: #1b261f; stroke: #9fb7a6; stroke-width: 2; }
    .label { fill: #eef3ec; font: 700 29px Inter, Arial, sans-serif; }
    .text { fill: #cbd5cc; font: 23px Inter, Arial, sans-serif; }
    .small { fill: #92a094; font: 21px Inter, Arial, sans-serif; }
    .accent { stroke: #b9d8bb; stroke-width: 4; fill: none; }
    .warn { stroke: #d6c7a1; stroke-width: 4; fill: none; }
    .fillAccent { fill: #b9d8bb; }
    .fillWarn { fill: #d6c7a1; }
    .muted { fill: #6f8376; opacity: .8; }
  </style>
  <rect class="bg" width="1600" height="900"/>
  <text class="title" x="88" y="112">Perception robustness: failure modes</text>
  <text class="subtitle" x="90" y="158">Safety-critical perception needs testing beyond clean, static inputs.</text>

  <g transform="translate(100 230)">
    <rect class="panel" x="0" y="0" width="260" height="220" rx="8"/>
    <text class="label" x="28" y="52">Low light</text>
    <rect class="muted" x="34" y="86" width="190" height="82" rx="6"/>
    <circle class="fillWarn" cx="70" cy="126" r="18" opacity=".45"/>
    <text class="small" x="28" y="195">Signal weakens</text>

    <rect class="panel" x="285" y="0" width="260" height="220" rx="8"/>
    <text class="label" x="313" y="52">Motion blur</text>
    <path class="warn" d="M330 124 H498 M350 95 H520 M338 153 H486"/>
    <circle class="fillAccent" cx="410" cy="124" r="28" opacity=".45"/>
    <text class="small" x="313" y="195">Edges smear</text>

    <rect class="panel" x="570" y="0" width="260" height="220" rx="8"/>
    <text class="label" x="598" y="52">Occlusion</text>
    <circle class="accent" cx="665" cy="126" r="42"/>
    <rect class="fillWarn" x="665" y="78" width="82" height="96" rx="6" opacity=".8"/>
    <text class="small" x="598" y="195">Object partly hidden</text>

    <rect class="panel" x="855" y="0" width="260" height="220" rx="8"/>
    <text class="label" x="883" y="52">Compression</text>
    <g opacity=".85">
      <rect class="fillAccent" x="900" y="88" width="28" height="28"/>
      <rect class="fillWarn" x="932" y="88" width="28" height="28"/>
      <rect class="muted" x="964" y="88" width="28" height="28"/>
      <rect class="fillAccent" x="996" y="88" width="28" height="28"/>
      <rect class="muted" x="900" y="120" width="28" height="28"/>
      <rect class="fillAccent" x="932" y="120" width="28" height="28"/>
      <rect class="fillWarn" x="964" y="120" width="28" height="28"/>
      <rect class="muted" x="996" y="120" width="28" height="28"/>
    </g>
    <text class="small" x="883" y="195">Artifacts appear</text>

    <rect class="panel" x="1140" y="0" width="260" height="220" rx="8"/>
    <text class="label" x="1168" y="52">Frame drift</text>
    <rect class="accent" x="1190" y="88" width="58" height="46" rx="4"/>
    <rect class="warn" x="1262" y="110" width="58" height="46" rx="4"/>
    <path class="warn" d="M1252 112 C1260 104 1268 104 1276 112"/>
    <text class="small" x="1168" y="195">Temporal inconsistency</text>
  </g>

  <rect class="panel2" x="225" y="535" width="1150" height="125" rx="8"/>
  <text class="label" x="270" y="586">Operational risk appears when detection behavior changes under ordinary conditions.</text>
  <text class="text" x="270" y="623">Robustness testing should record input condition, model output, confidence behavior,</text>
  <text class="text" x="270" y="654">and frame-to-frame continuity.</text>

  <rect x="100" y="735" width="1390" height="82" rx="8" fill="#121a16" stroke="#506156" stroke-width="2"/>
  <text class="small" x="128" y="771">Visual type: conceptual explainer, not measured detector output. Sources: SRC-IMAGENET-C, SRC-NIST-AI-RMF-1</text>
  <text class="small" x="128" y="799">Claim boundary: no accuracy, confidence, or incident-rate values are implied.</text>
</svg>
